<?xml version="1.0" encoding="utf-8"?>
<!-- Generator: Adobe Illustrator 28.3.0, SVG Export Plug-In . SVG Version: 6.00 Build 0)  -->
<svg version="1.1" id="Capa_1" xmlns="http://www.w3.org/2000/svg" xmlns:xlink="http://www.w3.org/1999/xlink" x="0px" y="0px"
	 viewBox="0 0 2209.34 372.38" style="enable-background:new 0 0 2209.34 372.38; fill:white;" xml:space="preserve">
<style type="text/css">
	.st0{fill:#FFFFFF;}
</style>
<g>
	<g>
		<g>
			<g>
				<path class="st0" d="M-1923.18,366.82c-9.34-23.86-21.42-55.25-30.63-78.94c-9.56-24.55-19.1-49.03-28.65-73.58h-121.75
					c-1.11,3.14-2.22,6.24-3.36,9.38c-3.11,8.52-6.2,17.13-9.29,25.71l-4.4,12.34c-6.42,17.85-30.32,86.69-36.56,104.94h-11.2
					c0.76-2.05,59.94-160.96,75.8-204.55c5.73-15.82,11.49-31.64,17.23-47.44l9.92-27.2c9.18-25.23,18.36-50.46,27.55-75.66
					c0.43-1.14,0.88-2.25,1.37-3.31c0.17-0.51,0.44-1.08,0.66-1.57l0.73-1.77h22.65l0.68,1.82
					c23.11,59.18,46.24,118.34,69.38,177.58c22.69,58.1,48.46,123.95,71.23,182.23H-1923.18z M-2101.44,206.54h116.04l-59.67-153.92
					L-2101.44,206.54z"/>
			</g>
		</g>
		<g>
			<g>
				<path class="st0" d="M-1660.06,366.82h-21.91l-0.7-1.85c0,0-1.28-3.65-1.91-5.36c-5.59-15.74-11.2-31.53-16.79-47.27
					c-4.8-13.37-9.58-26.74-14.33-40.11c-14.18-39.88-28.35-79.77-42.53-119.62c-13.11-36.86-26.21-73.72-39.3-110.58
					c-0.91-2.48-1.74-4.93-2.62-7.36c-0.36-1-0.7-2-1.08-3.02v53.99c0,69.59,0,141.43,0.07,212.16c0,11.43,0,68.76,0,68.76h-7.85
					c0,0,0-58.73,0-71.01c0-69.85,0-139.75,0-209.62V5.19h48.21l108.67,310.09c12.59-40.03,67.84-215.58,97.01-308.09l0.6-2h46.1
					l-0.01,361.43h-47.07l-0.08-332.41c-4.42,14-8.84,28.05-13.27,42.08l-19.16,60.64c-20.38,64.51-40.78,129-61.12,193.51
					c-2.45,7.78-4.8,15.74-7.06,23.46c-1.08,3.62-2.15,7.27-3.25,10.92L-1660.06,366.82z"/>
			</g>
		</g>
		<g>
			<g>
				<path class="st0" d="M-1370.7,367.02c-17.63,0-36.53-0.09-52.61-0.2V5.05c0,0,0,0,4.89,0c11.19-0.03,22.41,0,33.63,0
					c23.9,0,42.36,0,59.77,0.09c10.28,0,19.63,0.31,28.59,0.94c21.17,1.57,39.37,7.01,55.6,16.82c13.3,7.98,23.59,18.73,30.48,31.93
					c6.79,12.83,9.92,27.2,9.59,43.99c-0.23,12.12-3.01,23.55-8.18,33.92c-8.81,17.67-22.89,31.19-43.05,41.34
					c-7.77,3.91-16.64,7.18-26.27,9.72l0.74,0.12c16.06,1.8,31.24,6.13,45.06,12.86c13.36,6.5,24.35,15.14,32.61,25.74
					c10.9,14.05,16.45,30.67,16.45,49.46c0,11.92-2.41,23.06-7.21,33.15c-6.99,14.65-17.59,26.68-32.56,36.78
					c-17.53,11.83-38.14,19.3-63.03,22.92C-1293.95,366.33-1320.82,367.02-1370.7,367.02z M-1375.32,359.15
					c4.96,0.03,16.13,0.09,29.39,0.09c9.64,0,23.19-0.03,32.83-0.11c10.3-0.09,20.58-1.85,30.45-5.25
					c18.16-6.22,31.47-17.65,39.6-33.95c4.79-9.55,7.74-20.35,9.07-33.04c1.74-16.93,0.36-32.13-4.29-46.47
					c-4.66-14.37-12.57-25.97-23.58-34.49c-13.09-10.12-28.48-15.51-45.9-16.08c-6.53-0.17-15.88-0.28-27.74-0.28
					c-16.36,0-33.28,0.2-39.83,0.26V359.15z M-1375.27,181.8c5.79,0.09,19.41,0.2,31.71,0.2h0.03c6.91,0,12.49-0.06,16.48-0.09
					c7.38-0.2,14.34-0.83,20.7-2.02c26.76-4.96,43.48-19.79,51.06-45.44c2-6.73,3.31-14.17,4.09-22.84
					c1.77-19.87,0.03-37.37-5.35-53.48c-3.85-11.4-9.92-20.98-18.02-28.37c-11.5-10.43-25.57-15.82-43.09-16.45
					c-10.08-0.43-26.54-0.51-38.59-0.51c-8.17,0-15.31,0.06-19.03,0.06V181.8z"/>
			</g>
		</g>
		<g>
			<g>
				<path class="st0" d="M-978.96,372.38c-18.9,0-37.96-3.51-56.7-10.38c-23.62-8.67-43.59-23.12-59.34-42.85
					c-21.58-27.05-34.48-60.58-38.42-99.69c-1.35-13.37-2.94-32.96-1.24-48.04c1.88-16.65,3.83-33.84,8.84-50.72
					c10.28-34.58,26.91-61.89,50.82-83.42c22.64-20.38,49.56-32.56,79.99-36.15C-988.63,0.43-982.13,0-975.8,0
					c15.45,0,31,2.22,46.37,6.59c23.48,6.67,43.92,18.7,60.68,35.72c22.07,22.41,36.49,50.66,44.1,86.38
					c5.76,27.03,7.13,55.02,3.98,83.16c-3.69,33.24-13.21,61.83-29.14,87.44c-22.76,36.63-54.07,59.78-93.11,68.93
					C-954.83,370.98-966.96,372.38-978.96,372.38z M-977.17,7.81c-7.01,0-14.37,0.77-21.87,2.37c-20.54,4.33-37.28,15.11-51.07,32.9
					c-9.48,12.23-16.92,26.97-22.69,45.04c-6.34,19.9-10.25,41.94-11.9,67.45c-2.68,40.63-0.04,76.12,8.11,108.48
					c6.84,27.4,16.42,48.18,30.06,65.51c10.72,13.54,22.94,22.98,37.23,28.76c10.02,4.02,20.67,5.99,32.59,5.99l0,0
					c2.08,0,4.25-0.03,6.44-0.2c30.08-1.65,54.17-16.08,71.53-42.82c11.18-17.22,18.83-37.77,24.1-64.6
					c3.82-19.64,6.07-42.36,6.02-60.75c0.21-36.83-2.65-63.77-9.52-90.06c-7.04-26.94-16.66-47.35-30.29-64.26
					c-10.76-13.34-22.95-22.52-37.2-28C-955.65,9.75-966.24,7.81-977.17,7.81z"/>
			</g>
		</g>
		<g>
			<g>
				<path class="st0" d="M-2281.07,371.01L-2281.07,371.01c-3.86,0-7.57-0.4-10.96-1.11c-14.8-3.28-25.84-9.86-33.85-20.21
					c-5.97-7.78-8.57-16.79-11.03-25.46l-0.17-0.51c-1.88-8.67-2.99-25.2,11.16-39.43c5.86-5.53,13.76-8.7,21.77-8.7
					c6.2,0,12.07,1.82,17.01,5.22c11.39,8.01,15.45,24.46,9.36,38.32c-4.55,10.38-15.52,17.33-27.3,17.33
					c-2.14,0-4.28-0.23-6.31-0.68c-2.45-0.54-4.83-1.34-7.11-2.14c-0.64-0.2-1.25-0.4-1.88-0.66c-0.08-0.03-0.14-0.03-0.14-0.03
					c-0.03,0.09,0,0.23,0,0.34c1.46,9.12,6.29,16.48,14.75,22.49c6.98,4.93,16.15,7.67,25.83,7.67c10.99,0,21.62-3.56,29.08-9.78
					c8.2-6.78,12.81-15.96,14.2-28.08c2.49-21.64-3.22-42.62-8.75-60.58c-5.75-18.59-11.99-40.34-14.2-62.83
					c-1.41-14.48-2.18-28.94-2.24-42.88c-0.13-19.33-0.21-60.61-0.13-147.33V5.19h48.69v2.82c-0.06,31.56-0.06,64.46-0.06,97.67
					c0,52,0,104.74-0.03,154.06c0,16.56-0.81,38.26-7.03,59.58c-5.35,18.25-13.13,31.05-24.59,40.28
					C-2253.18,366.42-2267.67,371.01-2281.07,371.01z"/>
			</g>
		</g>
	</g>
	<g>
		<path class="st0" d="M-136.34,371.32c0,0,30.15-181.31-30.5-271.57C-217.78,23.92-298.17,1.08-358.44,1.08
			c-79.37,0-97.83,6.87-97.83,6.87v185.62c0,0,42.24-3.56,71.56,8.84c32.81,13.91,52.26,50.35,52.26,50.35s28.49-59.18,78.87-59.18
			c97.33,0,69.46,177.75,69.46,177.75H-136.34z"/>
		<g>
			<path class="st0" d="M-631.08,50.75c-115.94,115.92-76.22,320.58-76.22,320.58h43.08c0,0-16.66-146.73,55.65-170.91
				c31.12-10.41,86.65-6.3,86.65-6.3v177.21h43.76V7.95C-478.16,7.95-579.11-1.25-631.08,50.75z M-529.82,104.97
				c-12.7,0-23.05-10.32-23.05-23.09c0-12.74,10.35-23.09,23.05-23.09c12.82,0,23.15,10.35,23.15,23.09
				C-506.67,94.65-517,104.97-529.82,104.97z"/>
		</g>
	</g>
</g>
<g>
	<g>
		<g>
			<g>
				<path d="M415.01,366.82c-9.34-23.86-21.42-55.25-30.63-78.94c-9.56-24.55-19.1-49.03-28.65-73.58H233.98
					c-1.11,3.14-2.22,6.24-3.36,9.38c-3.11,8.52-6.2,17.13-9.29,25.71l-4.4,12.34c-6.42,17.85-30.32,86.69-36.56,104.94h-11.2
					c0.76-2.05,59.94-160.96,75.8-204.55c5.73-15.82,11.49-31.64,17.23-47.44l9.92-27.2c9.18-25.23,18.36-50.46,27.55-75.66
					c0.43-1.14,0.88-2.25,1.37-3.31c0.17-0.51,0.44-1.08,0.66-1.57l0.73-1.77h22.65l0.68,1.82
					c23.11,59.18,46.24,118.34,69.38,177.58c22.69,58.1,48.46,123.95,71.23,182.23H415.01z M236.75,206.54h116.04L293.12,52.63
					L236.75,206.54z"/>
			</g>
		</g>
		<g>
			<g>
				<path d="M678.13,366.82h-21.91l-0.7-1.85c0,0-1.28-3.65-1.91-5.36c-5.59-15.74-11.2-31.53-16.79-47.27
					c-4.8-13.37-9.58-26.74-14.33-40.11c-14.18-39.88-28.35-79.77-42.53-119.62c-13.11-36.86-26.21-73.72-39.3-110.58
					c-0.91-2.48-1.74-4.93-2.62-7.36c-0.36-1-0.7-2-1.08-3.02v53.99c0,69.59,0,141.43,0.07,212.16c0,11.43,0,68.76,0,68.76h-7.85
					c0,0,0-58.73,0-71.01c0-69.85,0-139.75,0-209.62V5.19h48.21l108.67,310.09c12.59-40.03,67.84-215.58,97.01-308.09l0.6-2h46.1
					l-0.01,361.43h-47.07L782.6,34.21c-4.42,14-8.84,28.05-13.27,42.08l-19.16,60.64c-20.38,64.51-40.78,129-61.12,193.51
					c-2.45,7.78-4.8,15.74-7.06,23.46c-1.08,3.62-2.15,7.27-3.25,10.92L678.13,366.82z"/>
			</g>
		</g>
		<g>
			<g>
				<path d="M967.49,367.02c-17.63,0-36.53-0.09-52.61-0.2V5.05c0,0,0,0,4.89,0c11.19-0.03,22.41,0,33.63,0
					c23.9,0,42.36,0,59.77,0.09c10.28,0,19.63,0.31,28.59,0.94c21.17,1.57,39.37,7.01,55.6,16.82c13.3,7.98,23.59,18.73,30.48,31.93
					c6.79,12.83,9.92,27.2,9.59,43.99c-0.23,12.12-3.01,23.55-8.18,33.92c-8.81,17.67-22.89,31.19-43.05,41.34
					c-7.77,3.91-16.64,7.18-26.27,9.72l0.74,0.12c16.06,1.8,31.24,6.13,45.06,12.86c13.36,6.5,24.35,15.14,32.61,25.74
					c10.9,14.05,16.45,30.67,16.45,49.46c0,11.92-2.41,23.06-7.21,33.15c-6.99,14.65-17.59,26.68-32.56,36.78
					c-17.53,11.83-38.14,19.3-63.03,22.92C1044.23,366.33,1017.36,367.02,967.49,367.02z M962.87,359.15
					c4.96,0.03,16.13,0.09,29.39,0.09c9.64,0,23.19-0.03,32.83-0.11c10.3-0.09,20.58-1.85,30.45-5.25
					c18.16-6.22,31.47-17.65,39.6-33.95c4.79-9.55,7.74-20.35,9.07-33.04c1.74-16.93,0.36-32.13-4.29-46.47
					c-4.66-14.37-12.57-25.97-23.58-34.49c-13.09-10.12-28.48-15.51-45.9-16.08c-6.53-0.17-15.88-0.28-27.74-0.28
					c-16.36,0-33.28,0.2-39.83,0.26V359.15z M962.91,181.8c5.79,0.09,19.41,0.2,31.71,0.2h0.03c6.91,0,12.49-0.06,16.48-0.09
					c7.38-0.2,14.34-0.83,20.7-2.02c26.76-4.96,43.48-19.79,51.06-45.44c2-6.73,3.31-14.17,4.09-22.84
					c1.77-19.87,0.03-37.37-5.35-53.48c-3.85-11.4-9.92-20.98-18.02-28.37c-11.5-10.43-25.57-15.82-43.09-16.45
					c-10.08-0.43-26.54-0.51-38.59-0.51c-8.17,0-15.31,0.06-19.03,0.06V181.8z"/>
			</g>
		</g>
		<g>
			<g>
				<path d="M1359.22,372.38c-18.9,0-37.96-3.51-56.7-10.38c-23.62-8.67-43.59-23.12-59.34-42.85
					c-21.58-27.05-34.48-60.58-38.42-99.69c-1.35-13.37-2.94-32.96-1.24-48.04c1.88-16.65,3.83-33.84,8.84-50.72
					c10.28-34.58,26.91-61.89,50.82-83.42c22.64-20.38,49.56-32.56,79.99-36.15c6.39-0.71,12.89-1.14,19.22-1.14
					c15.45,0,31,2.22,46.37,6.59c23.48,6.67,43.92,18.7,60.68,35.72c22.07,22.41,36.49,50.66,44.1,86.38
					c5.76,27.03,7.13,55.02,3.98,83.16c-3.69,33.24-13.21,61.83-29.14,87.44c-22.76,36.63-54.07,59.78-93.11,68.93
					C1383.35,370.98,1371.22,372.38,1359.22,372.38z M1361.02,7.81c-7.01,0-14.37,0.77-21.87,2.37
					c-20.54,4.33-37.28,15.11-51.07,32.9c-9.48,12.23-16.92,26.97-22.69,45.04c-6.34,19.9-10.25,41.94-11.9,67.45
					c-2.68,40.63-0.04,76.12,8.11,108.48c6.84,27.4,16.42,48.18,30.06,65.51c10.72,13.54,22.94,22.98,37.23,28.76
					c10.02,4.02,20.67,5.99,32.59,5.99l0,0c2.08,0,4.25-0.03,6.44-0.2c30.08-1.65,54.17-16.08,71.53-42.82
					c11.18-17.22,18.83-37.77,24.1-64.6c3.82-19.64,6.07-42.36,6.02-60.75c0.21-36.83-2.65-63.77-9.52-90.06
					c-7.04-26.94-16.66-47.35-30.29-64.26c-10.76-13.34-22.95-22.52-37.2-28C1382.54,9.75,1371.95,7.81,1361.02,7.81z"/>
			</g>
		</g>
		<g>
			<g>
				<path d="M57.11,371.01L57.11,371.01c-3.86,0-7.57-0.4-10.96-1.11c-14.8-3.28-25.84-9.86-33.85-20.21
					c-5.97-7.78-8.57-16.79-11.03-25.46l-0.17-0.51c-1.88-8.67-2.99-25.2,11.16-39.43c5.86-5.53,13.76-8.7,21.77-8.7
					c6.2,0,12.07,1.82,17.01,5.22c11.39,8.01,15.45,24.46,9.36,38.32c-4.55,10.38-15.52,17.33-27.3,17.33
					c-2.14,0-4.28-0.23-6.31-0.68c-2.45-0.54-4.83-1.34-7.11-2.14c-0.64-0.2-1.25-0.4-1.88-0.66c-0.08-0.03-0.14-0.03-0.14-0.03
					c-0.03,0.09,0,0.23,0,0.34c1.46,9.12,6.29,16.48,14.75,22.49c6.98,4.93,16.15,7.67,25.83,7.67c10.99,0,21.62-3.56,29.08-9.78
					c8.2-6.78,12.81-15.96,14.2-28.08c2.49-21.64-3.22-42.62-8.75-60.58c-5.75-18.59-11.99-40.34-14.2-62.83
					c-1.41-14.48-2.18-28.94-2.24-42.88c-0.13-19.33-0.21-60.61-0.13-147.33V5.19h48.69v2.82c-0.06,31.56-0.06,64.46-0.06,97.67
					c0,52,0,104.74-0.03,154.06c0,16.56-0.81,38.26-7.03,59.58c-5.35,18.25-13.13,31.05-24.59,40.28
					C85.01,366.42,70.51,371.01,57.11,371.01z"/>
			</g>
		</g>
	</g>
	<g>
		<path d="M2201.84,371.32c0,0,30.15-181.31-30.5-271.57c-50.93-75.83-131.32-98.67-191.59-98.67c-79.37,0-97.83,6.87-97.83,6.87
			v185.62c0,0,42.24-3.56,71.56,8.84c32.81,13.91,52.26,50.35,52.26,50.35s28.49-59.18,78.87-59.18
			c97.33,0,69.46,177.75,69.46,177.75H2201.84z"/>
		<g>
			<path d="M1707.11,50.75c-115.94,115.92-76.22,320.58-76.22,320.58h43.08c0,0-16.66-146.73,55.65-170.91
				c31.12-10.41,86.65-6.3,86.65-6.3v177.21h43.76V7.95C1860.03,7.95,1759.08-1.25,1707.11,50.75z M1808.37,104.97
				c-12.7,0-23.05-10.32-23.05-23.09c0-12.74,10.35-23.09,23.05-23.09c12.82,0,23.15,10.35,23.15,23.09
				C1831.52,94.65,1821.19,104.97,1808.37,104.97z"/>
		</g>
	</g>
</g>
</svg>
